<svg width="208" height="214" viewBox="0 0 208 214" fill="none" xmlns="http://www.w3.org/2000/svg">
<circle cx="104.492" cy="110.257" r="83.9763" transform="rotate(-10.1297 104.492 110.257)" fill="#FFC526" stroke="black" stroke-width="10"/>
<mask id="path-2-outside-1_189_141" maskUnits="userSpaceOnUse" x="75.7903" y="62.49" width="61.1119" height="96.6874" fill="black">
<rect fill="white" x="75.7903" y="62.49" width="61.1119" height="96.6874"/>
<path d="M107.735 140.997C105.079 141.408 102.479 141.603 99.9353 141.581C97.3918 141.559 95.2916 141.443 93.6348 141.231C92.0032 140.983 90.9864 140.799 90.5842 140.68L87.8801 125.545L94.4788 124.366L97.9288 132.749C98.1354 132.84 98.648 132.954 99.4665 133.094C100.285 133.233 101.38 133.323 102.753 133.364C104.125 133.404 105.626 133.279 107.257 132.988C110.918 132.334 113.923 131.035 116.274 129.091C118.626 127.147 119.548 124.76 119.043 121.93C118.718 120.115 117.892 118.691 116.565 117.658C115.238 116.626 113.69 115.871 111.922 115.393C110.149 114.884 107.68 114.389 104.514 113.907C100.433 113.271 97.1311 112.559 94.6095 111.772C92.1187 110.979 89.8295 109.626 87.7418 107.713C85.6794 105.764 84.3321 103.021 83.7001 99.4835C82.8427 94.6844 83.6614 90.6494 86.1562 87.3784C88.6818 84.1019 92.2529 81.702 96.8695 80.1788L94.9074 69.1965L101.967 67.9351L103.872 78.5945C106.181 78.3723 108.506 78.3221 110.845 78.4439C113.209 78.5294 115.161 78.7044 116.7 78.9691C118.265 79.1975 119.243 79.3402 119.634 79.3973L121.703 93.6461L116.028 94.6601L112.111 86.5983C111.843 86.5192 111.254 86.4182 110.343 86.2952C109.463 86.1667 108.337 86.0822 106.964 86.0417C105.586 85.9704 104.205 86.0584 102.821 86.3057C99.2218 86.9488 96.5598 88.218 94.835 90.1134C93.141 92.0033 92.4974 94.0865 92.9041 96.3629C93.2284 98.1779 94.075 99.6298 95.4441 100.718C96.8077 101.776 98.4096 102.569 100.25 103.098C102.085 103.595 104.59 104.116 107.767 104.659C111.664 105.328 114.873 106.056 117.395 106.844C119.942 107.595 122.205 108.889 124.183 110.726C126.193 112.557 127.489 115.104 128.072 118.364C128.962 123.348 128.141 127.637 125.609 131.233C123.102 134.791 119.465 137.441 114.697 139.182L116.997 152.056L109.937 153.318L107.735 140.997Z"/>
</mask>
<path d="M107.735 140.997C105.079 141.408 102.479 141.603 99.9353 141.581C97.3918 141.559 95.2916 141.443 93.6348 141.231C92.0032 140.983 90.9864 140.799 90.5842 140.68L87.8801 125.545L94.4788 124.366L97.9288 132.749C98.1354 132.84 98.648 132.954 99.4665 133.094C100.285 133.233 101.38 133.323 102.753 133.364C104.125 133.404 105.626 133.279 107.257 132.988C110.918 132.334 113.923 131.035 116.274 129.091C118.626 127.147 119.548 124.76 119.043 121.93C118.718 120.115 117.892 118.691 116.565 117.658C115.238 116.626 113.69 115.871 111.922 115.393C110.149 114.884 107.68 114.389 104.514 113.907C100.433 113.271 97.1311 112.559 94.6095 111.772C92.1187 110.979 89.8295 109.626 87.7418 107.713C85.6794 105.764 84.3321 103.021 83.7001 99.4835C82.8427 94.6844 83.6614 90.6494 86.1562 87.3784C88.6818 84.1019 92.2529 81.702 96.8695 80.1788L94.9074 69.1965L101.967 67.9351L103.872 78.5945C106.181 78.3723 108.506 78.3221 110.845 78.4439C113.209 78.5294 115.161 78.7044 116.7 78.9691C118.265 79.1975 119.243 79.3402 119.634 79.3973L121.703 93.6461L116.028 94.6601L112.111 86.5983C111.843 86.5192 111.254 86.4182 110.343 86.2952C109.463 86.1667 108.337 86.0822 106.964 86.0417C105.586 85.9704 104.205 86.0584 102.821 86.3057C99.2218 86.9488 96.5598 88.218 94.835 90.1134C93.141 92.0033 92.4974 94.0865 92.9041 96.3629C93.2284 98.1779 94.075 99.6298 95.4441 100.718C96.8077 101.776 98.4096 102.569 100.25 103.098C102.085 103.595 104.59 104.116 107.767 104.659C111.664 105.328 114.873 106.056 117.395 106.844C119.942 107.595 122.205 108.889 124.183 110.726C126.193 112.557 127.489 115.104 128.072 118.364C128.962 123.348 128.141 127.637 125.609 131.233C123.102 134.791 119.465 137.441 114.697 139.182L116.997 152.056L109.937 153.318L107.735 140.997Z" fill="black"/>
<path d="M107.735 140.997L109.704 140.645L109.361 138.722L107.429 139.021L107.735 140.997ZM93.6348 141.231L93.3341 143.208L93.3575 143.211L93.3811 143.215L93.6348 141.231ZM90.5842 140.68L88.6154 141.032L88.8328 142.249L90.0184 142.599L90.5842 140.68ZM87.8801 125.545L87.5284 123.576L85.5596 123.928L85.9113 125.897L87.8801 125.545ZM94.4788 124.366L96.3283 123.605L95.7145 122.114L94.127 122.397L94.4788 124.366ZM97.9288 132.749L96.0793 133.511L96.3874 134.259L97.1294 134.583L97.9288 132.749ZM111.922 115.393L111.371 117.315L111.386 117.32L111.401 117.324L111.922 115.393ZM104.514 113.907L104.207 115.883L104.213 115.884L104.514 113.907ZM94.6095 111.772L94.0027 113.678L94.0133 113.681L94.6095 111.772ZM87.7418 107.713L86.3681 109.167L86.3794 109.178L86.3907 109.188L87.7418 107.713ZM86.1562 87.3784L84.5722 86.1574L84.566 86.1655L86.1562 87.3784ZM96.8695 80.1788L97.4962 82.0781L99.1434 81.5346L98.8383 79.8271L96.8695 80.1788ZM94.9074 69.1965L94.5556 67.2277L92.5868 67.5794L92.9386 69.5482L94.9074 69.1965ZM101.967 67.9351L103.936 67.5834L103.585 65.6146L101.616 65.9663L101.967 67.9351ZM103.872 78.5945L101.903 78.9462L102.227 80.7619L104.063 80.5853L103.872 78.5945ZM110.845 78.4439L110.741 80.4412L110.757 80.442L110.772 80.4426L110.845 78.4439ZM116.7 78.9691L116.361 80.9402L116.386 80.9445L116.411 80.9481L116.7 78.9691ZM119.634 79.3973L121.613 79.1099L121.399 77.6338L119.923 77.4183L119.634 79.3973ZM121.703 93.6461L122.055 95.6149L123.961 95.2744L123.683 93.3586L121.703 93.6461ZM116.028 94.6601L114.229 95.5341L114.89 96.8951L116.379 96.6289L116.028 94.6601ZM112.111 86.5983L113.91 85.7243L113.524 84.9299L112.677 84.68L112.111 86.5983ZM110.343 86.2952L110.054 88.2742L110.064 88.2758L110.075 88.2772L110.343 86.2952ZM106.964 86.0417L106.861 88.039L106.883 88.0402L106.905 88.0408L106.964 86.0417ZM94.835 90.1134L93.3558 88.7673L93.3508 88.7729L93.3458 88.7785L94.835 90.1134ZM95.4441 100.718L94.1993 102.284L94.2087 102.291L94.2181 102.299L95.4441 100.718ZM100.25 103.098L99.6981 105.02L99.7123 105.024L99.7266 105.028L100.25 103.098ZM107.767 104.659L108.105 102.688L108.104 102.688L107.767 104.659ZM117.395 106.844L116.799 108.753L116.814 108.758L116.829 108.762L117.395 106.844ZM124.183 110.726L122.823 112.192L122.83 112.198L122.836 112.204L124.183 110.726ZM125.609 131.233L127.244 132.384L127.244 132.384L125.609 131.233ZM114.697 139.182L114.011 137.303L112.432 137.88L112.728 139.534L114.697 139.182ZM116.997 152.056L117.348 154.025L119.317 153.673L118.965 151.704L116.997 152.056ZM109.937 153.318L107.968 153.669L108.32 155.638L110.288 155.286L109.937 153.318ZM107.429 139.021C104.874 139.416 102.382 139.602 99.9524 139.581L99.9182 143.581C102.576 143.604 105.284 143.4 108.041 142.974L107.429 139.021ZM99.9524 139.581C97.4517 139.56 95.4376 139.445 93.8885 139.247L93.3811 143.215C95.1456 143.44 97.3319 143.559 99.9182 143.581L99.9524 139.581ZM93.9355 139.253C92.2549 138.998 91.3924 138.834 91.1501 138.762L90.0184 142.599C90.5803 142.765 91.7515 142.967 93.3341 143.208L93.9355 139.253ZM92.5531 140.329L89.849 125.193L85.9113 125.897L88.6154 141.032L92.5531 140.329ZM88.2319 127.514L94.8305 126.335L94.127 122.397L87.5284 123.576L88.2319 127.514ZM92.6293 125.127L96.0793 133.511L99.7783 131.988L96.3283 123.605L92.6293 125.127ZM97.1294 134.583C97.4246 134.711 97.7705 134.796 98.0312 134.855C98.3344 134.923 98.7044 134.993 99.1306 135.065L99.8024 131.122C99.41 131.055 99.1145 130.998 98.9052 130.951C98.8007 130.928 98.7309 130.91 98.6891 130.898C98.637 130.883 98.6626 130.888 98.7283 130.916L97.1294 134.583ZM99.1306 135.065C100.08 135.227 101.28 135.321 102.694 135.363L102.812 131.365C101.481 131.325 100.49 131.239 99.8024 131.122L99.1306 135.065ZM102.694 135.363C104.228 135.408 105.869 135.267 107.609 134.956L106.905 131.019C105.383 131.291 104.022 131.4 102.812 131.365L102.694 135.363ZM107.609 134.956C111.535 134.255 114.88 132.839 117.549 130.632L115 127.549C112.967 129.23 110.3 130.412 106.905 131.019L107.609 134.956ZM117.549 130.632C120.414 128.263 121.653 125.17 121.011 121.578L117.074 122.282C117.443 124.35 116.837 126.031 115 127.549L117.549 130.632ZM121.011 121.578C120.609 119.328 119.549 117.446 117.793 116.08L115.337 119.237C116.236 119.936 116.827 120.902 117.074 122.282L121.011 121.578ZM117.793 116.08C116.238 114.87 114.446 114.003 112.444 113.462L111.401 117.324C112.935 117.738 114.237 118.381 115.337 119.237L117.793 116.08ZM112.474 113.47C110.58 112.927 108.014 112.417 104.816 111.93L104.213 115.884C107.346 116.361 109.718 116.841 111.371 117.315L112.474 113.47ZM104.822 111.931C100.79 111.303 97.5959 110.609 95.2057 109.863L94.0133 113.681C96.6663 114.51 100.075 115.24 104.207 115.883L104.822 111.931ZM95.2163 109.866C93.0243 109.168 90.9847 107.972 89.0928 106.239L86.3907 109.188C88.6743 111.28 91.2131 112.789 94.0027 113.678L95.2163 109.866ZM89.1154 106.26C87.4387 104.675 86.2459 102.361 85.6689 99.1317L81.7313 99.8352C82.4184 103.681 83.9201 106.854 86.3681 109.167L89.1154 106.26ZM85.6689 99.1317C84.8902 94.7731 85.6544 91.3343 87.7465 88.5913L84.566 86.1655C81.6684 89.9645 80.7952 94.5958 81.7313 99.8352L85.6689 99.1317ZM87.7403 88.5994C89.9814 85.692 93.1913 83.4985 97.4962 82.0781L96.2429 78.2795C91.3146 79.9056 87.3823 82.5118 84.5722 86.1574L87.7403 88.5994ZM98.8383 79.8271L96.8762 68.8447L92.9386 69.5482L94.9007 80.5306L98.8383 79.8271ZM95.2591 71.1653L102.319 69.904L101.616 65.9663L94.5556 67.2277L95.2591 71.1653ZM99.9986 68.2869L101.903 78.9462L105.841 78.2427L103.936 67.5834L99.9986 68.2869ZM104.063 80.5853C106.274 80.3727 108.499 80.3245 110.741 80.4412L110.949 76.4466C108.512 76.3198 106.089 76.372 103.68 76.6037L104.063 80.5853ZM110.772 80.4426C113.088 80.5263 114.943 80.6963 116.361 80.9402L117.039 76.998C115.379 76.7126 113.33 76.5325 110.917 76.4452L110.772 80.4426ZM116.411 80.9481C116.414 80.9486 116.417 80.949 116.42 80.9495C116.424 80.9499 116.427 80.9504 116.43 80.9508C116.433 80.9512 116.436 80.9517 116.439 80.9521C116.442 80.9526 116.445 80.953 116.448 80.9535C116.451 80.9539 116.454 80.9543 116.457 80.9548C116.46 80.9552 116.463 80.9557 116.466 80.9561C116.469 80.9566 116.472 80.957 116.475 80.9574C116.478 80.9579 116.481 80.9583 116.484 80.9588C116.487 80.9592 116.49 80.9597 116.493 80.9601C116.496 80.9605 116.499 80.961 116.502 80.9614C116.505 80.9618 116.508 80.9623 116.511 80.9627C116.514 80.9632 116.517 80.9636 116.52 80.964C116.523 80.9645 116.526 80.9649 116.529 80.9654C116.532 80.9658 116.535 80.9662 116.538 80.9667C116.541 80.9671 116.544 80.9675 116.547 80.968C116.55 80.9684 116.553 80.9689 116.556 80.9693C116.559 80.9697 116.562 80.9702 116.565 80.9706C116.568 80.971 116.571 80.9715 116.574 80.9719C116.577 80.9723 116.58 80.9728 116.583 80.9732C116.586 80.9736 116.589 80.9741 116.592 80.9745C116.595 80.9749 116.598 80.9754 116.601 80.9758C116.604 80.9762 116.607 80.9767 116.61 80.9771C116.613 80.9775 116.616 80.978 116.619 80.9784C116.622 80.9788 116.625 80.9792 116.627 80.9797C116.63 80.9801 116.633 80.9805 116.636 80.981C116.639 80.9814 116.642 80.9818 116.645 80.9823C116.648 80.9827 116.651 80.9831 116.654 80.9835C116.657 80.984 116.66 80.9844 116.663 80.9848C116.666 80.9853 116.669 80.9857 116.672 80.9861C116.674 80.9865 116.677 80.987 116.68 80.9874C116.683 80.9878 116.686 80.9882 116.689 80.9887C116.692 80.9891 116.695 80.9895 116.698 80.9899C116.701 80.9904 116.704 80.9908 116.707 80.9912C116.709 80.9916 116.712 80.9921 116.715 80.9925C116.718 80.9929 116.721 80.9933 116.724 80.9938C116.727 80.9942 116.73 80.9946 116.733 80.995C116.736 80.9954 116.738 80.9959 116.741 80.9963C116.744 80.9967 116.747 80.9971 116.75 80.9976C116.753 80.998 116.756 80.9984 116.759 80.9988C116.762 80.9992 116.764 80.9997 116.767 81.0001C116.77 81.0005 116.773 81.0009 116.776 81.0013C116.779 81.0018 116.782 81.0022 116.785 81.0026C116.787 81.003 116.79 81.0034 116.793 81.0039C116.796 81.0043 116.799 81.0047 116.802 81.0051C116.805 81.0055 116.807 81.0059 116.81 81.0064C116.813 81.0068 116.816 81.0072 116.819 81.0076C116.822 81.008 116.825 81.0084 116.827 81.0089C116.83 81.0093 116.833 81.0097 116.836 81.0101C116.839 81.0105 116.842 81.0109 116.844 81.0113C116.847 81.0118 116.85 81.0122 116.853 81.0126C116.856 81.013 116.859 81.0134 116.861 81.0138C116.864 81.0142 116.867 81.0146 116.87 81.0151C116.873 81.0155 116.876 81.0159 116.878 81.0163C116.881 81.0167 116.884 81.0171 116.887 81.0175C116.89 81.0179 116.892 81.0183 116.895 81.0188C116.898 81.0192 116.901 81.0196 116.904 81.02C116.906 81.0204 116.909 81.0208 116.912 81.0212C116.915 81.0216 116.918 81.022 116.92 81.0224C116.923 81.0229 116.926 81.0233 116.929 81.0237C116.932 81.0241 116.934 81.0245 116.937 81.0249C116.94 81.0253 116.943 81.0257 116.946 81.0261C116.948 81.0265 116.951 81.0269 116.954 81.0273C116.957 81.0277 116.959 81.0281 116.962 81.0285C116.965 81.0289 116.968 81.0294 116.971 81.0298C116.973 81.0302 116.976 81.0306 116.979 81.031C116.982 81.0314 116.984 81.0318 116.987 81.0322C116.99 81.0326 116.993 81.033 116.995 81.0334C116.998 81.0338 117.001 81.0342 117.004 81.0346C117.006 81.035 117.009 81.0354 117.012 81.0358C117.015 81.0362 117.017 81.0366 117.02 81.037C117.023 81.0374 117.026 81.0378 117.028 81.0382C117.031 81.0386 117.034 81.039 117.037 81.0394C117.039 81.0398 117.042 81.0402 117.045 81.0406C117.047 81.041 117.05 81.0414 117.053 81.0418C117.056 81.0422 117.058 81.0426 117.061 81.043C117.064 81.0434 117.067 81.0438 117.069 81.0442C117.072 81.0446 117.075 81.045 117.077 81.0454C117.08 81.0458 117.083 81.0461 117.086 81.0465C117.088 81.0469 117.091 81.0473 117.094 81.0477C117.096 81.0481 117.099 81.0485 117.102 81.0489C117.104 81.0493 117.107 81.0497 117.11 81.0501C117.113 81.0505 117.115 81.0509 117.118 81.0513C117.121 81.0517 117.123 81.0521 117.126 81.0524C117.129 81.0528 117.131 81.0532 117.134 81.0536C117.137 81.054 117.139 81.0544 117.142 81.0548C117.145 81.0552 117.147 81.0556 117.15 81.056C117.153 81.0563 117.155 81.0567 117.158 81.0571C117.161 81.0575 117.163 81.0579 117.166 81.0583C117.169 81.0587 117.171 81.0591 117.174 81.0595C117.177 81.0598 117.179 81.0602 117.182 81.0606C117.185 81.061 117.187 81.0614 117.19 81.0618C117.193 81.0622 117.195 81.0626 117.198 81.0629C117.201 81.0633 117.203 81.0637 117.206 81.0641C117.208 81.0645 117.211 81.0649 117.214 81.0653C117.216 81.0656 117.219 81.066 117.222 81.0664C117.224 81.0668 117.227 81.0672 117.23 81.0676C117.232 81.0679 117.235 81.0683 117.237 81.0687C117.24 81.0691 117.243 81.0695 117.245 81.0699C117.248 81.0702 117.25 81.0706 117.253 81.071C117.256 81.0714 117.258 81.0718 117.261 81.0721C117.264 81.0725 117.266 81.0729 117.269 81.0733C117.271 81.0737 117.274 81.074 117.277 81.0744C117.279 81.0748 117.282 81.0752 117.284 81.0756C117.287 81.0759 117.29 81.0763 117.292 81.0767C117.295 81.0771 117.297 81.0775 117.3 81.0778C117.302 81.0782 117.305 81.0786 117.308 81.079C117.31 81.0793 117.313 81.0797 117.315 81.0801C117.318 81.0805 117.321 81.0808 117.323 81.0812C117.326 81.0816 117.328 81.082 117.331 81.0823C117.333 81.0827 117.336 81.0831 117.338 81.0835C117.341 81.0838 117.344 81.0842 117.346 81.0846C117.349 81.085 117.351 81.0853 117.354 81.0857C117.356 81.0861 117.359 81.0865 117.362 81.0868C117.364 81.0872 117.367 81.0876 117.369 81.0879C117.372 81.0883 117.374 81.0887 117.377 81.0891C117.379 81.0894 117.382 81.0898 117.384 81.0902C117.387 81.0905 117.389 81.0909 117.392 81.0913C117.395 81.0916 117.397 81.092 117.4 81.0924C117.402 81.0928 117.405 81.0931 117.407 81.0935C117.41 81.0939 117.412 81.0942 117.415 81.0946C117.417 81.095 117.42 81.0953 117.422 81.0957C117.425 81.0961 117.427 81.0964 117.43 81.0968C117.432 81.0972 117.435 81.0975 117.437 81.0979C117.44 81.0983 117.442 81.0986 117.445 81.099C117.447 81.0994 117.45 81.0997 117.452 81.1001C117.455 81.1005 117.457 81.1008 117.46 81.1012C117.462 81.1015 117.465 81.1019 117.467 81.1023C117.47 81.1026 117.472 81.103 117.475 81.1034C117.477 81.1037 117.48 81.1041 117.482 81.1044C117.485 81.1048 117.487 81.1052 117.49 81.1055C117.492 81.1059 117.495 81.1063 117.497 81.1066C117.499 81.107 117.502 81.1073 117.504 81.1077C117.507 81.108 117.509 81.1084 117.512 81.1088C117.514 81.1091 117.517 81.1095 117.519 81.1098C117.522 81.1102 117.524 81.1106 117.527 81.1109C117.529 81.1113 117.531 81.1116 117.534 81.112C117.536 81.1123 117.539 81.1127 117.541 81.1131C117.544 81.1134 117.546 81.1138 117.549 81.1141C117.551 81.1145 117.553 81.1148 117.556 81.1152C117.558 81.1156 117.561 81.1159 117.563 81.1163C117.566 81.1166 117.568 81.117 117.57 81.1173C117.573 81.1177 117.575 81.118 117.578 81.1184C117.58 81.1187 117.583 81.1191 117.585 81.1194C117.587 81.1198 117.59 81.1202 117.592 81.1205C117.595 81.1209 117.597 81.1212 117.599 81.1216C117.602 81.1219 117.604 81.1223 117.607 81.1226C117.609 81.123 117.611 81.1233 117.614 81.1237C117.616 81.124 117.619 81.1244 117.621 81.1247C117.623 81.1251 117.626 81.1254 117.628 81.1258C117.631 81.1261 117.633 81.1265 117.635 81.1268C117.638 81.1271 117.64 81.1275 117.643 81.1278C117.645 81.1282 117.647 81.1285 117.65 81.1289C117.652 81.1292 117.654 81.1296 117.657 81.1299C117.659 81.1303 117.661 81.1306 117.664 81.131C117.666 81.1313 117.669 81.1317 117.671 81.132C117.673 81.1323 117.676 81.1327 117.678 81.133C117.68 81.1334 117.683 81.1337 117.685 81.1341C117.687 81.1344 117.69 81.1348 117.692 81.1351C117.695 81.1354 117.697 81.1358 117.699 81.1361C117.702 81.1365 117.704 81.1368 117.706 81.1371C117.709 81.1375 117.711 81.1378 117.713 81.1382C117.716 81.1385 117.718 81.1389 117.72 81.1392C117.723 81.1395 117.725 81.1399 117.727 81.1402C117.73 81.1406 117.732 81.1409 117.734 81.1412C117.737 81.1416 117.739 81.1419 117.741 81.1422C117.743 81.1426 117.746 81.1429 117.748 81.1433C117.75 81.1436 117.753 81.1439 117.755 81.1443C117.757 81.1446 117.76 81.1449 117.762 81.1453C117.764 81.1456 117.767 81.146 117.769 81.1463C117.771 81.1466 117.773 81.147 117.776 81.1473C117.778 81.1476 117.78 81.148 117.783 81.1483C117.785 81.1486 117.787 81.149 117.789 81.1493C117.792 81.1496 117.794 81.15 117.796 81.1503C117.799 81.1506 117.801 81.151 117.803 81.1513C117.805 81.1516 117.808 81.152 117.81 81.1523C117.812 81.1526 117.815 81.153 117.817 81.1533C117.819 81.1536 117.821 81.154 117.824 81.1543C117.826 81.1546 117.828 81.1549 117.83 81.1553C117.833 81.1556 117.835 81.1559 117.837 81.1563C117.839 81.1566 117.842 81.1569 117.844 81.1572C117.846 81.1576 117.848 81.1579 117.851 81.1582C117.853 81.1586 117.855 81.1589 117.857 81.1592C117.86 81.1595 117.862 81.1599 117.864 81.1602C117.866 81.1605 117.869 81.1608 117.871 81.1612C117.873 81.1615 117.875 81.1618 117.877 81.1622C117.88 81.1625 117.882 81.1628 117.884 81.1631C117.886 81.1635 117.889 81.1638 117.891 81.1641C117.893 81.1644 117.895 81.1647 117.897 81.1651C117.9 81.1654 117.902 81.1657 117.904 81.166C117.906 81.1664 117.909 81.1667 117.911 81.167C117.913 81.1673 117.915 81.1676 117.917 81.168C117.92 81.1683 117.922 81.1686 117.924 81.1689C117.926 81.1693 117.928 81.1696 117.931 81.1699C117.933 81.1702 117.935 81.1705 117.937 81.1709C117.939 81.1712 117.941 81.1715 117.944 81.1718C117.946 81.1721 117.948 81.1724 117.95 81.1728C117.952 81.1731 117.955 81.1734 117.957 81.1737C117.959 81.174 117.961 81.1744 117.963 81.1747C117.965 81.175 117.968 81.1753 117.97 81.1756C117.972 81.1759 117.974 81.1762 117.976 81.1766C117.978 81.1769 117.981 81.1772 117.983 81.1775C117.985 81.1778 117.987 81.1781 117.989 81.1785C117.991 81.1788 117.993 81.1791 117.996 81.1794C117.998 81.1797 118 81.18 118.002 81.1803C118.004 81.1806 118.006 81.181 118.008 81.1813C118.011 81.1816 118.013 81.1819 118.015 81.1822C118.017 81.1825 118.019 81.1828 118.021 81.1831C118.023 81.1835 118.026 81.1838 118.028 81.1841C118.03 81.1844 118.032 81.1847 118.034 81.185C118.036 81.1853 118.038 81.1856 118.04 81.1859C118.042 81.1862 118.045 81.1865 118.047 81.1869C118.049 81.1872 118.051 81.1875 118.053 81.1878C118.055 81.1881 118.057 81.1884 118.059 81.1887C118.061 81.189 118.064 81.1893 118.066 81.1896C118.068 81.1899 118.07 81.1902 118.072 81.1905C118.074 81.1908 118.076 81.1911 118.078 81.1915C118.08 81.1918 118.082 81.1921 118.084 81.1924C118.087 81.1927 118.089 81.193 118.091 81.1933C118.093 81.1936 118.095 81.1939 118.097 81.1942C118.099 81.1945 118.101 81.1948 118.103 81.1951C118.105 81.1954 118.107 81.1957 118.109 81.196C118.111 81.1963 118.114 81.1966 118.116 81.1969C118.118 81.1972 118.12 81.1975 118.122 81.1978C118.124 81.1981 118.126 81.1984 118.128 81.1987C118.13 81.199 118.132 81.1993 118.134 81.1996C118.136 81.1999 118.138 81.2002 118.14 81.2005C118.142 81.2008 118.144 81.2011 118.146 81.2014C118.148 81.2017 118.15 81.202 118.152 81.2023C118.154 81.2026 118.157 81.2029 118.159 81.2032C118.161 81.2035 118.163 81.2038 118.165 81.2041C118.167 81.2044 118.169 81.2047 118.171 81.205C118.173 81.2053 118.175 81.2055 118.177 81.2058C118.179 81.2061 118.181 81.2064 118.183 81.2067C118.185 81.207 118.187 81.2073 118.189 81.2076C118.191 81.2079 118.193 81.2082 118.195 81.2085C118.197 81.2088 118.199 81.2091 118.201 81.2094C118.203 81.2096 118.205 81.2099 118.207 81.2102C118.209 81.2105 118.211 81.2108 118.213 81.2111C118.215 81.2114 118.217 81.2117 118.219 81.212C118.221 81.2123 118.223 81.2126 118.225 81.2128C118.227 81.2131 118.229 81.2134 118.231 81.2137C118.233 81.214 118.235 81.2143 118.237 81.2146C118.239 81.2149 118.241 81.2152 118.243 81.2154C118.244 81.2157 118.246 81.216 118.248 81.2163C118.25 81.2166 118.252 81.2169 118.254 81.2172C118.256 81.2174 118.258 81.2177 118.26 81.218C118.262 81.2183 118.264 81.2186 118.266 81.2189C118.268 81.2192 118.27 81.2194 118.272 81.2197C118.274 81.22 118.276 81.2203 118.278 81.2206C118.28 81.2209 118.282 81.2211 118.284 81.2214C118.285 81.2217 118.287 81.222 118.289 81.2223C118.291 81.2226 118.293 81.2228 118.295 81.2231C118.297 81.2234 118.299 81.2237 118.301 81.224C118.303 81.2242 118.305 81.2245 118.307 81.2248C118.309 81.2251 118.31 81.2254 118.312 81.2256C118.314 81.2259 118.316 81.2262 118.318 81.2265C118.32 81.2268 118.322 81.227 118.324 81.2273C118.326 81.2276 118.328 81.2279 118.33 81.2281C118.331 81.2284 118.333 81.2287 118.335 81.229C118.337 81.2293 118.339 81.2295 118.341 81.2298C118.343 81.2301 118.345 81.2304 118.347 81.2306C118.349 81.2309 118.35 81.2312 118.352 81.2315C118.354 81.2317 118.356 81.232 118.358 81.2323C118.36 81.2326 118.362 81.2328 118.364 81.2331C118.365 81.2334 118.367 81.2337 118.369 81.2339C118.371 81.2342 118.373 81.2345 118.375 81.2347C118.377 81.235 118.378 81.2353 118.38 81.2356C118.382 81.2358 118.384 81.2361 118.386 81.2364C118.388 81.2366 118.39 81.2369 118.391 81.2372C118.393 81.2375 118.395 81.2377 118.397 81.238C118.399 81.2383 118.401 81.2385 118.403 81.2388C118.404 81.2391 118.406 81.2393 118.408 81.2396C118.41 81.2399 118.412 81.2401 118.414 81.2404C118.415 81.2407 118.417 81.2409 118.419 81.2412C118.421 81.2415 118.423 81.2417 118.425 81.242C118.426 81.2423 118.428 81.2425 118.43 81.2428C118.432 81.2431 118.434 81.2433 118.435 81.2436C118.437 81.2439 118.439 81.2441 118.441 81.2444C118.443 81.2447 118.445 81.2449 118.446 81.2452C118.448 81.2455 118.45 81.2457 118.452 81.246C118.454 81.2462 118.455 81.2465 118.457 81.2468C118.459 81.247 118.461 81.2473 118.463 81.2476C118.464 81.2478 118.466 81.2481 118.468 81.2483C118.47 81.2486 118.472 81.2489 118.473 81.2491C118.475 81.2494 118.477 81.2496 118.479 81.2499C118.48 81.2502 118.482 81.2504 118.484 81.2507C118.486 81.2509 118.488 81.2512 118.489 81.2515C118.491 81.2517 118.493 81.252 118.495 81.2522C118.496 81.2525 118.498 81.2528 118.5 81.253C118.502 81.2533 118.503 81.2535 118.505 81.2538C118.507 81.254 118.509 81.2543 118.51 81.2545C118.512 81.2548 118.514 81.2551 118.516 81.2553C118.517 81.2556 118.519 81.2558 118.521 81.2561C118.523 81.2563 118.524 81.2566 118.526 81.2568C118.528 81.2571 118.53 81.2573 118.531 81.2576C118.533 81.2579 118.535 81.2581 118.537 81.2584C118.538 81.2586 118.54 81.2589 118.542 81.2591C118.543 81.2594 118.545 81.2596 118.547 81.2599C118.549 81.2601 118.55 81.2604 118.552 81.2606C118.554 81.2609 118.556 81.2611 118.557 81.2614C118.559 81.2616 118.561 81.2619 118.562 81.2621C118.564 81.2624 118.566 81.2626 118.567 81.2629C118.569 81.2631 118.571 81.2634 118.573 81.2636C118.574 81.2639 118.576 81.2641 118.578 81.2644C118.579 81.2646 118.581 81.2649 118.583 81.2651C118.584 81.2653 118.586 81.2656 118.588 81.2658C118.59 81.2661 118.591 81.2663 118.593 81.2666C118.595 81.2668 118.596 81.2671 118.598 81.2673C118.6 81.2676 118.601 81.2678 118.603 81.2681C118.605 81.2683 118.606 81.2685 118.608 81.2688C118.61 81.269 118.611 81.2693 118.613 81.2695C118.615 81.2698 118.616 81.27 118.618 81.2702C118.62 81.2705 118.621 81.2707 118.623 81.271C118.625 81.2712 118.626 81.2714 118.628 81.2717C118.63 81.2719 118.631 81.2722 118.633 81.2724C118.634 81.2727 118.636 81.2729 118.638 81.2731C118.639 81.2734 118.641 81.2736 118.643 81.2738C118.644 81.2741 118.646 81.2743 118.648 81.2746C118.649 81.2748 118.651 81.275 118.652 81.2753C118.654 81.2755 118.656 81.2758 118.657 81.276C118.659 81.2762 118.661 81.2765 118.662 81.2767C118.664 81.2769 118.665 81.2772 118.667 81.2774C118.669 81.2776 118.67 81.2779 118.672 81.2781C118.673 81.2784 118.675 81.2786 118.677 81.2788C118.678 81.279 118.68 81.2793 118.682 81.2795C118.683 81.2798 118.685 81.28 118.686 81.2802C118.688 81.2804 118.689 81.2807 118.691 81.2809C118.693 81.2812 118.694 81.2814 118.696 81.2816C118.697 81.2818 118.699 81.2821 118.701 81.2823C118.702 81.2825 118.704 81.2828 118.705 81.283C118.707 81.2832 118.709 81.2835 118.71 81.2837C118.712 81.2839 118.713 81.2841 118.715 81.2844C118.716 81.2846 118.718 81.2848 118.72 81.2851C118.721 81.2853 118.723 81.2855 118.724 81.2858C118.726 81.286 118.727 81.2862 118.729 81.2864C118.73 81.2867 118.732 81.2869 118.734 81.2871C118.735 81.2873 118.737 81.2876 118.738 81.2878C118.74 81.288 118.741 81.2882 118.743 81.2885C118.744 81.2887 118.746 81.2889 118.747 81.2891C118.749 81.2894 118.751 81.2896 118.752 81.2898C118.754 81.29 118.755 81.2903 118.757 81.2905C118.758 81.2907 118.76 81.2909 118.761 81.2912C118.763 81.2914 118.764 81.2916 118.766 81.2918C118.767 81.292 118.769 81.2923 118.77 81.2925C118.772 81.2927 118.773 81.2929 118.775 81.2932C118.776 81.2934 118.778 81.2936 118.779 81.2938C118.781 81.294 118.782 81.2943 118.784 81.2945C118.785 81.2947 118.787 81.2949 118.788 81.2951C118.79 81.2953 118.791 81.2956 118.793 81.2958C118.794 81.296 118.796 81.2962 118.797 81.2964C118.799 81.2967 118.8 81.2969 118.802 81.2971C118.803 81.2973 118.805 81.2975 118.806 81.2977C118.808 81.298 118.809 81.2982 118.811 81.2984C118.812 81.2986 118.814 81.2988 118.815 81.299C118.817 81.2992 118.818 81.2995 118.82 81.2997C118.821 81.2999 118.822 81.3001 118.824 81.3003C118.825 81.3005 118.827 81.3007 118.828 81.301C118.83 81.3012 118.831 81.3014 118.833 81.3016C118.834 81.3018 118.836 81.302 118.837 81.3022C118.839 81.3024 118.84 81.3026 118.841 81.3029C118.843 81.3031 118.844 81.3033 118.846 81.3035C118.847 81.3037 118.849 81.3039 118.85 81.3041C118.851 81.3043 118.853 81.3045 118.854 81.3047C118.856 81.305 118.857 81.3052 118.859 81.3054C118.86 81.3056 118.861 81.3058 118.863 81.306C118.864 81.3062 118.866 81.3064 118.867 81.3066C118.869 81.3068 118.87 81.307 118.871 81.3072C118.873 81.3074 118.874 81.3077 118.876 81.3079C118.877 81.3081 118.878 81.3083 118.88 81.3085C118.881 81.3087 118.883 81.3089 118.884 81.3091C118.885 81.3093 118.887 81.3095 118.888 81.3097C118.89 81.3099 118.891 81.3101 118.892 81.3103C118.894 81.3105 118.895 81.3107 118.897 81.3109C118.898 81.3111 118.899 81.3113 118.901 81.3115C118.902 81.3117 118.903 81.3119 118.905 81.3121C118.906 81.3123 118.908 81.3125 118.909 81.3127C118.91 81.3129 118.912 81.3131 118.913 81.3133C118.914 81.3135 118.916 81.3137 118.917 81.3139C118.919 81.3141 118.92 81.3143 118.921 81.3145C118.923 81.3147 118.924 81.3149 118.925 81.3151C118.927 81.3153 118.928 81.3155 118.929 81.3157C118.931 81.3159 118.932 81.3161 118.933 81.3163C118.935 81.3165 118.936 81.3167 118.937 81.3169C118.939 81.3171 118.94 81.3173 118.942 81.3175C118.943 81.3177 118.944 81.3179 118.946 81.3181C118.947 81.3183 118.948 81.3184 118.95 81.3186C118.951 81.3188 118.952 81.319 118.953 81.3192C118.955 81.3194 118.956 81.3196 118.957 81.3198C118.959 81.32 118.96 81.3202 118.961 81.3204C118.963 81.3206 118.964 81.3208 118.965 81.321C118.967 81.3211 118.968 81.3213 118.969 81.3215C118.971 81.3217 118.972 81.3219 118.973 81.3221C118.974 81.3223 118.976 81.3225 118.977 81.3227C118.978 81.3229 118.98 81.323 118.981 81.3232C118.982 81.3234 118.984 81.3236 118.985 81.3238C118.986 81.324 118.987 81.3242 118.989 81.3244C118.99 81.3245 118.991 81.3247 118.993 81.3249C118.994 81.3251 118.995 81.3253 118.996 81.3255C118.998 81.3257 118.999 81.3258 119 81.326C119.001 81.3262 119.003 81.3264 119.004 81.3266C119.005 81.3268 119.006 81.327 119.008 81.3271C119.009 81.3273 119.01 81.3275 119.012 81.3277C119.013 81.3279 119.014 81.3281 119.015 81.3282C119.017 81.3284 119.018 81.3286 119.019 81.3288C119.02 81.329 119.022 81.3292 119.023 81.3293C119.024 81.3295 119.025 81.3297 119.027 81.3299C119.028 81.3301 119.029 81.3302 119.03 81.3304C119.031 81.3306 119.033 81.3308 119.034 81.331C119.035 81.3311 119.036 81.3313 119.038 81.3315C119.039 81.3317 119.04 81.3319 119.041 81.332C119.042 81.3322 119.044 81.3324 119.045 81.3326C119.046 81.3327 119.047 81.3329 119.049 81.3331C119.05 81.3333 119.051 81.3335 119.052 81.3336C119.053 81.3338 119.055 81.334 119.056 81.3342C119.057 81.3343 119.058 81.3345 119.059 81.3347C119.061 81.3349 119.062 81.335 119.063 81.3352C119.064 81.3354 119.065 81.3356 119.067 81.3357C119.068 81.3359 119.069 81.3361 119.07 81.3363C119.071 81.3364 119.072 81.3366 119.074 81.3368C119.075 81.3369 119.076 81.3371 119.077 81.3373C119.078 81.3374 119.08 81.3376 119.081 81.3378C119.082 81.338 119.083 81.3381 119.084 81.3383C119.085 81.3385 119.087 81.3386 119.088 81.3388C119.089 81.339 119.09 81.3392 119.091 81.3393C119.092 81.3395 119.094 81.3397 119.095 81.3398C119.096 81.34 119.097 81.3402 119.098 81.3403C119.099 81.3405 119.1 81.3407 119.102 81.3408C119.103 81.341 119.104 81.3412 119.105 81.3413C119.106 81.3415 119.107 81.3417 119.108 81.3418C119.11 81.342 119.111 81.3422 119.112 81.3423C119.113 81.3425 119.114 81.3427 119.115 81.3428C119.116 81.343 119.117 81.3432 119.119 81.3433C119.12 81.3435 119.121 81.3436 119.122 81.3438C119.123 81.344 119.124 81.3441 119.125 81.3443C119.126 81.3445 119.127 81.3446 119.129 81.3448C119.13 81.3449 119.131 81.3451 119.132 81.3453C119.133 81.3454 119.134 81.3456 119.135 81.3458C119.136 81.3459 119.137 81.3461 119.139 81.3462C119.14 81.3464 119.141 81.3465 119.142 81.3467C119.143 81.3469 119.144 81.347 119.145 81.3472C119.146 81.3473 119.147 81.3475 119.148 81.3477C119.149 81.3478 119.15 81.348 119.152 81.3481C119.153 81.3483 119.154 81.3485 119.155 81.3486C119.156 81.3488 119.157 81.3489 119.158 81.3491C119.159 81.3492 119.16 81.3494 119.161 81.3495C119.162 81.3497 119.163 81.3498 119.164 81.35C119.165 81.3502 119.166 81.3503 119.168 81.3505C119.169 81.3506 119.17 81.3508 119.171 81.3509C119.172 81.3511 119.173 81.3512 119.174 81.3514C119.175 81.3515 119.176 81.3517 119.177 81.3518C119.178 81.352 119.179 81.3522 119.18 81.3523C119.181 81.3525 119.182 81.3526 119.183 81.3528C119.184 81.3529 119.185 81.3531 119.186 81.3532C119.187 81.3534 119.188 81.3535 119.189 81.3537C119.19 81.3538 119.191 81.354 119.192 81.3541C119.193 81.3543 119.194 81.3544 119.195 81.3545C119.196 81.3547 119.198 81.3548 119.199 81.355C119.2 81.3551 119.201 81.3553 119.202 81.3554C119.203 81.3556 119.204 81.3557 119.205 81.3559C119.206 81.356 119.207 81.3562 119.208 81.3563C119.209 81.3565 119.21 81.3566 119.211 81.3567C119.212 81.3569 119.213 81.357 119.214 81.3572C119.214 81.3573 119.215 81.3575 119.216 81.3576C119.217 81.3578 119.218 81.3579 119.219 81.358C119.22 81.3582 119.221 81.3583 119.222 81.3585C119.223 81.3586 119.224 81.3588 119.225 81.3589C119.226 81.359 119.227 81.3592 119.228 81.3593C119.229 81.3595 119.23 81.3596 119.231 81.3597C119.232 81.3599 119.233 81.36 119.234 81.3602C119.235 81.3603 119.236 81.3604 119.237 81.3606C119.238 81.3607 119.239 81.3609 119.24 81.361C119.241 81.3611 119.242 81.3613 119.242 81.3614C119.243 81.3615 119.244 81.3617 119.245 81.3618C119.246 81.362 119.247 81.3621 119.248 81.3622C119.249 81.3624 119.25 81.3625 119.251 81.3626C119.252 81.3628 119.253 81.3629 119.254 81.363C119.255 81.3632 119.256 81.3633 119.256 81.3634C119.257 81.3636 119.258 81.3637 119.259 81.3639C119.26 81.364 119.261 81.3641 119.262 81.3642C119.263 81.3644 119.264 81.3645 119.265 81.3646C119.266 81.3648 119.266 81.3649 119.267 81.365C119.268 81.3652 119.269 81.3653 119.27 81.3654C119.271 81.3656 119.272 81.3657 119.273 81.3658C119.274 81.366 119.275 81.3661 119.275 81.3662C119.276 81.3663 119.277 81.3665 119.278 81.3666C119.279 81.3667 119.28 81.3669 119.281 81.367C119.282 81.3671 119.283 81.3672 119.283 81.3674C119.284 81.3675 119.285 81.3676 119.286 81.3678C119.287 81.3679 119.288 81.368 119.289 81.3681C119.289 81.3683 119.29 81.3684 119.291 81.3685C119.292 81.3686 119.293 81.3688 119.294 81.3689C119.295 81.369 119.296 81.3691 119.296 81.3693C119.297 81.3694 119.298 81.3695 119.299 81.3696C119.3 81.3698 119.301 81.3699 119.301 81.37C119.302 81.3701 119.303 81.3703 119.304 81.3704C119.305 81.3705 119.306 81.3706 119.306 81.3708C119.307 81.3709 119.308 81.371 119.309 81.3711C119.31 81.3712 119.311 81.3714 119.311 81.3715C119.312 81.3716 119.313 81.3717 119.314 81.3718C119.315 81.372 119.316 81.3721 119.316 81.3722C119.317 81.3723 119.318 81.3724 119.319 81.3726C119.32 81.3727 119.32 81.3728 119.321 81.3729C119.322 81.373 119.323 81.3731 119.324 81.3733C119.325 81.3734 119.325 81.3735 119.326 81.3736C119.327 81.3737 119.328 81.3739 119.329 81.374C119.329 81.3741 119.33 81.3742 119.331 81.3743C119.332 81.3744 119.332 81.3745 119.333 81.3747C119.334 81.3748 119.335 81.3749 119.336 81.375C119.336 81.3751 119.337 81.3752 119.338 81.3753C119.339 81.3755 119.339 81.3756 119.34 81.3757C119.341 81.3758 119.342 81.3759 119.343 81.376C119.343 81.3761 119.344 81.3762 119.345 81.3764L119.923 77.4183C119.922 77.4182 119.921 77.4181 119.92 77.418C119.92 77.4179 119.919 77.4177 119.918 77.4176C119.917 77.4175 119.917 77.4174 119.916 77.4173C119.915 77.4172 119.914 77.4171 119.913 77.417C119.913 77.4168 119.912 77.4167 119.911 77.4166C119.91 77.4165 119.909 77.4164 119.909 77.4163C119.908 77.4161 119.907 77.416 119.906 77.4159C119.905 77.4158 119.905 77.4157 119.904 77.4156C119.903 77.4155 119.902 77.4153 119.901 77.4152C119.901 77.4151 119.9 77.415 119.899 77.4149C119.898 77.4147 119.897 77.4146 119.897 77.4145C119.896 77.4144 119.895 77.4143 119.894 77.4142C119.893 77.414 119.893 77.4139 119.892 77.4138C119.891 77.4137 119.89 77.4136 119.889 77.4134C119.888 77.4133 119.888 77.4132 119.887 77.4131C119.886 77.4129 119.885 77.4128 119.884 77.4127C119.883 77.4126 119.883 77.4125 119.882 77.4123C119.881 77.4122 119.88 77.4121 119.879 77.412C119.878 77.4118 119.878 77.4117 119.877 77.4116C119.876 77.4115 119.875 77.4113 119.874 77.4112C119.873 77.4111 119.872 77.411 119.872 77.4108C119.871 77.4107 119.87 77.4106 119.869 77.4105C119.868 77.4103 119.867 77.4102 119.866 77.4101C119.866 77.41 119.865 77.4098 119.864 77.4097C119.863 77.4096 119.862 77.4095 119.861 77.4093C119.86 77.4092 119.859 77.4091 119.859 77.4089C119.858 77.4088 119.857 77.4087 119.856 77.4086C119.855 77.4084 119.854 77.4083 119.853 77.4082C119.852 77.408 119.851 77.4079 119.851 77.4078C119.85 77.4076 119.849 77.4075 119.848 77.4074C119.847 77.4073 119.846 77.4071 119.845 77.407C119.844 77.4069 119.843 77.4067 119.842 77.4066C119.842 77.4065 119.841 77.4063 119.84 77.4062C119.839 77.4061 119.838 77.4059 119.837 77.4058C119.836 77.4057 119.835 77.4055 119.834 77.4054C119.833 77.4053 119.832 77.4051 119.831 77.405C119.831 77.4049 119.83 77.4047 119.829 77.4046C119.828 77.4044 119.827 77.4043 119.826 77.4042C119.825 77.404 119.824 77.4039 119.823 77.4038C119.822 77.4036 119.821 77.4035 119.82 77.4034C119.819 77.4032 119.818 77.4031 119.817 77.4029C119.816 77.4028 119.816 77.4027 119.815 77.4025C119.814 77.4024 119.813 77.4022 119.812 77.4021C119.811 77.402 119.81 77.4018 119.809 77.4017C119.808 77.4016 119.807 77.4014 119.806 77.4013C119.805 77.4011 119.804 77.401 119.803 77.4008C119.802 77.4007 119.801 77.4006 119.8 77.4004C119.799 77.4003 119.798 77.4001 119.797 77.4C119.796 77.3998 119.795 77.3997 119.794 77.3996C119.793 77.3994 119.792 77.3993 119.791 77.3991C119.79 77.399 119.789 77.3988 119.788 77.3987C119.787 77.3985 119.786 77.3984 119.785 77.3983C119.784 77.3981 119.783 77.398 119.782 77.3978C119.781 77.3977 119.78 77.3975 119.779 77.3974C119.778 77.3972 119.777 77.3971 119.776 77.3969C119.775 77.3968 119.774 77.3966 119.773 77.3965C119.772 77.3963 119.771 77.3962 119.77 77.3961C119.769 77.3959 119.768 77.3958 119.767 77.3956C119.766 77.3955 119.765 77.3953 119.764 77.3952C119.763 77.395 119.762 77.3949 119.761 77.3947C119.76 77.3946 119.759 77.3944 119.758 77.3943C119.757 77.3941 119.756 77.3939 119.755 77.3938C119.754 77.3936 119.753 77.3935 119.752 77.3933C119.751 77.3932 119.75 77.393 119.748 77.3929C119.747 77.3927 119.746 77.3926 119.745 77.3924C119.744 77.3923 119.743 77.3921 119.742 77.392C119.741 77.3918 119.74 77.3916 119.739 77.3915C119.738 77.3913 119.737 77.3912 119.736 77.391C119.735 77.3909 119.734 77.3907 119.733 77.3906C119.731 77.3904 119.73 77.3902 119.729 77.3901C119.728 77.3899 119.727 77.3898 119.726 77.3896C119.725 77.3895 119.724 77.3893 119.723 77.3891C119.722 77.389 119.721 77.3888 119.72 77.3887C119.718 77.3885 119.717 77.3883 119.716 77.3882C119.715 77.388 119.714 77.3879 119.713 77.3877C119.712 77.3875 119.711 77.3874 119.71 77.3872C119.709 77.3871 119.707 77.3869 119.706 77.3867C119.705 77.3866 119.704 77.3864 119.703 77.3862C119.702 77.3861 119.701 77.3859 119.7 77.3858C119.699 77.3856 119.697 77.3854 119.696 77.3853C119.695 77.3851 119.694 77.3849 119.693 77.3848C119.692 77.3846 119.691 77.3844 119.69 77.3843C119.688 77.3841 119.687 77.3839 119.686 77.3838C119.685 77.3836 119.684 77.3835 119.683 77.3833C119.682 77.3831 119.68 77.383 119.679 77.3828C119.678 77.3826 119.677 77.3824 119.676 77.3823C119.675 77.3821 119.674 77.3819 119.672 77.3818C119.671 77.3816 119.67 77.3814 119.669 77.3813C119.668 77.3811 119.667 77.3809 119.666 77.3808C119.664 77.3806 119.663 77.3804 119.662 77.3803C119.661 77.3801 119.66 77.3799 119.659 77.3797C119.657 77.3796 119.656 77.3794 119.655 77.3792C119.654 77.3791 119.653 77.3789 119.651 77.3787C119.65 77.3785 119.649 77.3784 119.648 77.3782C119.647 77.378 119.646 77.3779 119.644 77.3777C119.643 77.3775 119.642 77.3773 119.641 77.3772C119.64 77.377 119.638 77.3768 119.637 77.3766C119.636 77.3765 119.635 77.3763 119.634 77.3761C119.632 77.3759 119.631 77.3758 119.63 77.3756C119.629 77.3754 119.628 77.3752 119.626 77.375C119.625 77.3749 119.624 77.3747 119.623 77.3745C119.621 77.3743 119.62 77.3742 119.619 77.374C119.618 77.3738 119.617 77.3736 119.615 77.3735C119.614 77.3733 119.613 77.3731 119.612 77.3729C119.61 77.3727 119.609 77.3725 119.608 77.3724C119.607 77.3722 119.606 77.372 119.604 77.3718C119.603 77.3716 119.602 77.3715 119.601 77.3713C119.599 77.3711 119.598 77.3709 119.597 77.3707C119.596 77.3706 119.594 77.3704 119.593 77.3702C119.592 77.37 119.591 77.3698 119.589 77.3696C119.588 77.3695 119.587 77.3693 119.586 77.3691C119.584 77.3689 119.583 77.3687 119.582 77.3685C119.58 77.3684 119.579 77.3682 119.578 77.368C119.577 77.3678 119.575 77.3676 119.574 77.3674C119.573 77.3672 119.572 77.3671 119.57 77.3669C119.569 77.3667 119.568 77.3665 119.566 77.3663C119.565 77.3661 119.564 77.3659 119.563 77.3657C119.561 77.3656 119.56 77.3654 119.559 77.3652C119.557 77.365 119.556 77.3648 119.555 77.3646C119.554 77.3644 119.552 77.3642 119.551 77.364C119.55 77.3639 119.548 77.3637 119.547 77.3635C119.546 77.3633 119.544 77.3631 119.543 77.3629C119.542 77.3627 119.541 77.3625 119.539 77.3623C119.538 77.3621 119.537 77.3619 119.535 77.3618C119.534 77.3616 119.533 77.3614 119.531 77.3612C119.53 77.361 119.529 77.3608 119.527 77.3606C119.526 77.3604 119.525 77.3602 119.523 77.36C119.522 77.3598 119.521 77.3596 119.519 77.3594C119.518 77.3592 119.517 77.359 119.515 77.3588C119.514 77.3586 119.513 77.3584 119.511 77.3582C119.51 77.3581 119.509 77.3579 119.507 77.3577C119.506 77.3575 119.505 77.3573 119.503 77.3571C119.502 77.3569 119.5 77.3567 119.499 77.3565C119.498 77.3563 119.496 77.3561 119.495 77.3559C119.494 77.3557 119.492 77.3555 119.491 77.3553C119.49 77.3551 119.488 77.3549 119.487 77.3547C119.485 77.3545 119.484 77.3543 119.483 77.3541C119.481 77.3539 119.48 77.3537 119.479 77.3535C119.477 77.3533 119.476 77.3531 119.474 77.3529C119.473 77.3527 119.472 77.3525 119.47 77.3523C119.469 77.3521 119.467 77.3518 119.466 77.3516C119.465 77.3514 119.463 77.3512 119.462 77.351C119.46 77.3508 119.459 77.3506 119.458 77.3504C119.456 77.3502 119.455 77.35 119.453 77.3498C119.452 77.3496 119.451 77.3494 119.449 77.3492C119.448 77.349 119.446 77.3488 119.445 77.3486C119.444 77.3484 119.442 77.3482 119.441 77.3479C119.439 77.3477 119.438 77.3475 119.436 77.3473C119.435 77.3471 119.434 77.3469 119.432 77.3467C119.431 77.3465 119.429 77.3463 119.428 77.3461C119.426 77.3459 119.425 77.3456 119.424 77.3454C119.422 77.3452 119.421 77.345 119.419 77.3448C119.418 77.3446 119.416 77.3444 119.415 77.3442C119.413 77.344 119.412 77.3437 119.41 77.3435C119.409 77.3433 119.408 77.3431 119.406 77.3429C119.405 77.3427 119.403 77.3425 119.402 77.3423C119.4 77.3421 119.399 77.3418 119.397 77.3416C119.396 77.3414 119.394 77.3412 119.393 77.341C119.391 77.3408 119.39 77.3405 119.389 77.3403C119.387 77.3401 119.386 77.3399 119.384 77.3397C119.383 77.3395 119.381 77.3393 119.38 77.339C119.378 77.3388 119.377 77.3386 119.375 77.3384C119.374 77.3382 119.372 77.3379 119.371 77.3377C119.369 77.3375 119.368 77.3373 119.366 77.3371C119.365 77.3369 119.363 77.3366 119.362 77.3364C119.36 77.3362 119.359 77.336 119.357 77.3358C119.356 77.3355 119.354 77.3353 119.353 77.3351C119.351 77.3349 119.35 77.3347 119.348 77.3344C119.347 77.3342 119.345 77.334 119.344 77.3338C119.342 77.3336 119.341 77.3333 119.339 77.3331C119.337 77.3329 119.336 77.3327 119.334 77.3324C119.333 77.3322 119.331 77.332 119.33 77.3318C119.328 77.3315 119.327 77.3313 119.325 77.3311C119.324 77.3309 119.322 77.3306 119.321 77.3304C119.319 77.3302 119.318 77.33 119.316 77.3297C119.314 77.3295 119.313 77.3293 119.311 77.3291C119.31 77.3288 119.308 77.3286 119.307 77.3284C119.305 77.3282 119.304 77.3279 119.302 77.3277C119.3 77.3275 119.299 77.3272 119.297 77.327C119.296 77.3268 119.294 77.3266 119.293 77.3263C119.291 77.3261 119.289 77.3259 119.288 77.3256C119.286 77.3254 119.285 77.3252 119.283 77.3249C119.282 77.3247 119.28 77.3245 119.278 77.3243C119.277 77.324 119.275 77.3238 119.274 77.3236C119.272 77.3233 119.27 77.3231 119.269 77.3229C119.267 77.3226 119.266 77.3224 119.264 77.3222C119.262 77.3219 119.261 77.3217 119.259 77.3215C119.258 77.3212 119.256 77.321 119.254 77.3208C119.253 77.3205 119.251 77.3203 119.25 77.3201C119.248 77.3198 119.246 77.3196 119.245 77.3194C119.243 77.3191 119.242 77.3189 119.24 77.3186C119.238 77.3184 119.237 77.3182 119.235 77.3179C119.233 77.3177 119.232 77.3175 119.23 77.3172C119.229 77.317 119.227 77.3168 119.225 77.3165C119.224 77.3163 119.222 77.316 119.22 77.3158C119.219 77.3156 119.217 77.3153 119.216 77.3151C119.214 77.3148 119.212 77.3146 119.211 77.3144C119.209 77.3141 119.207 77.3139 119.206 77.3136C119.204 77.3134 119.202 77.3132 119.201 77.3129C119.199 77.3127 119.197 77.3124 119.196 77.3122C119.194 77.3119 119.192 77.3117 119.191 77.3115C119.189 77.3112 119.187 77.311 119.186 77.3107C119.184 77.3105 119.182 77.3102 119.181 77.31C119.179 77.3098 119.177 77.3095 119.176 77.3093C119.174 77.309 119.172 77.3088 119.171 77.3085C119.169 77.3083 119.167 77.308 119.166 77.3078C119.164 77.3076 119.162 77.3073 119.161 77.3071C119.159 77.3068 119.157 77.3066 119.155 77.3063C119.154 77.3061 119.152 77.3058 119.15 77.3056C119.149 77.3053 119.147 77.3051 119.145 77.3048C119.144 77.3046 119.142 77.3043 119.14 77.3041C119.138 77.3038 119.137 77.3036 119.135 77.3033C119.133 77.3031 119.132 77.3028 119.13 77.3026C119.128 77.3023 119.126 77.3021 119.125 77.3018C119.123 77.3016 119.121 77.3013 119.12 77.3011C119.118 77.3008 119.116 77.3006 119.114 77.3003C119.113 77.3001 119.111 77.2998 119.109 77.2996C119.107 77.2993 119.106 77.299 119.104 77.2988C119.102 77.2985 119.1 77.2983 119.099 77.298C119.097 77.2978 119.095 77.2975 119.093 77.2973C119.092 77.297 119.09 77.2968 119.088 77.2965C119.086 77.2962 119.085 77.296 119.083 77.2957C119.081 77.2955 119.079 77.2952 119.078 77.295C119.076 77.2947 119.074 77.2944 119.072 77.2942C119.071 77.2939 119.069 77.2937 119.067 77.2934C119.065 77.2932 119.064 77.2929 119.062 77.2926C119.06 77.2924 119.058 77.2921 119.056 77.2919C119.055 77.2916 119.053 77.2913 119.051 77.2911C119.049 77.2908 119.048 77.2906 119.046 77.2903C119.044 77.29 119.042 77.2898 119.04 77.2895C119.039 77.2892 119.037 77.289 119.035 77.2887C119.033 77.2885 119.031 77.2882 119.03 77.2879C119.028 77.2877 119.026 77.2874 119.024 77.2871C119.022 77.2869 119.021 77.2866 119.019 77.2863C119.017 77.2861 119.015 77.2858 119.013 77.2856C119.011 77.2853 119.01 77.285 119.008 77.2848C119.006 77.2845 119.004 77.2842 119.002 77.284C119.001 77.2837 118.999 77.2834 118.997 77.2832C118.995 77.2829 118.993 77.2826 118.991 77.2824C118.99 77.2821 118.988 77.2818 118.986 77.2816C118.984 77.2813 118.982 77.281 118.98 77.2807C118.979 77.2805 118.977 77.2802 118.975 77.2799C118.973 77.2797 118.971 77.2794 118.969 77.2791C118.967 77.2789 118.966 77.2786 118.964 77.2783C118.962 77.278 118.96 77.2778 118.958 77.2775C118.956 77.2772 118.954 77.277 118.953 77.2767C118.951 77.2764 118.949 77.2761 118.947 77.2759C118.945 77.2756 118.943 77.2753 118.941 77.2751C118.939 77.2748 118.938 77.2745 118.936 77.2742C118.934 77.274 118.932 77.2737 118.93 77.2734C118.928 77.2731 118.926 77.2729 118.924 77.2726C118.923 77.2723 118.921 77.272 118.919 77.2718C118.917 77.2715 118.915 77.2712 118.913 77.2709C118.911 77.2706 118.909 77.2704 118.907 77.2701C118.905 77.2698 118.904 77.2695 118.902 77.2693C118.9 77.269 118.898 77.2687 118.896 77.2684C118.894 77.2681 118.892 77.2679 118.89 77.2676C118.888 77.2673 118.886 77.267 118.884 77.2667C118.883 77.2665 118.881 77.2662 118.879 77.2659C118.877 77.2656 118.875 77.2653 118.873 77.2651C118.871 77.2648 118.869 77.2645 118.867 77.2642C118.865 77.2639 118.863 77.2637 118.861 77.2634C118.859 77.2631 118.857 77.2628 118.855 77.2625C118.854 77.2622 118.852 77.262 118.85 77.2617C118.848 77.2614 118.846 77.2611 118.844 77.2608C118.842 77.2605 118.84 77.2602 118.838 77.26C118.836 77.2597 118.834 77.2594 118.832 77.2591C118.83 77.2588 118.828 77.2585 118.826 77.2582C118.824 77.258 118.822 77.2577 118.82 77.2574C118.818 77.2571 118.816 77.2568 118.814 77.2565C118.812 77.2562 118.81 77.2559 118.808 77.2557C118.806 77.2554 118.805 77.2551 118.803 77.2548C118.801 77.2545 118.799 77.2542 118.797 77.2539C118.795 77.2536 118.793 77.2533 118.791 77.253C118.789 77.2528 118.787 77.2525 118.785 77.2522C118.783 77.2519 118.781 77.2516 118.779 77.2513C118.777 77.251 118.775 77.2507 118.773 77.2504C118.771 77.2501 118.769 77.2498 118.767 77.2495C118.765 77.2493 118.763 77.249 118.761 77.2487C118.759 77.2484 118.757 77.2481 118.755 77.2478C118.753 77.2475 118.751 77.2472 118.748 77.2469C118.746 77.2466 118.744 77.2463 118.742 77.246C118.74 77.2457 118.738 77.2454 118.736 77.2451C118.734 77.2448 118.732 77.2445 118.73 77.2442C118.728 77.2439 118.726 77.2436 118.724 77.2433C118.722 77.243 118.72 77.2427 118.718 77.2424C118.716 77.2422 118.714 77.2419 118.712 77.2416C118.71 77.2413 118.708 77.241 118.706 77.2407C118.704 77.2404 118.702 77.2401 118.7 77.2398C118.697 77.2395 118.695 77.2392 118.693 77.2389C118.691 77.2386 118.689 77.2382 118.687 77.238C118.685 77.2376 118.683 77.2373 118.681 77.237C118.679 77.2367 118.677 77.2364 118.675 77.2361C118.673 77.2358 118.671 77.2355 118.669 77.2352C118.666 77.2349 118.664 77.2346 118.662 77.2343C118.66 77.234 118.658 77.2337 118.656 77.2334C118.654 77.2331 118.652 77.2328 118.65 77.2325C118.648 77.2322 118.646 77.2319 118.643 77.2316C118.641 77.2313 118.639 77.231 118.637 77.2306C118.635 77.2303 118.633 77.23 118.631 77.2297C118.629 77.2294 118.627 77.2291 118.624 77.2288C118.622 77.2285 118.62 77.2282 118.618 77.2279C118.616 77.2276 118.614 77.2273 118.612 77.2269C118.61 77.2266 118.608 77.2263 118.605 77.226C118.603 77.2257 118.601 77.2254 118.599 77.2251C118.597 77.2248 118.595 77.2245 118.593 77.2242C118.591 77.2238 118.588 77.2235 118.586 77.2232C118.584 77.2229 118.582 77.2226 118.58 77.2223C118.578 77.222 118.576 77.2217 118.573 77.2213C118.571 77.221 118.569 77.2207 118.567 77.2204C118.565 77.2201 118.563 77.2198 118.56 77.2195C118.558 77.2191 118.556 77.2188 118.554 77.2185C118.552 77.2182 118.55 77.2179 118.548 77.2176C118.545 77.2172 118.543 77.2169 118.541 77.2166C118.539 77.2163 118.537 77.216 118.535 77.2157C118.532 77.2153 118.53 77.215 118.528 77.2147C118.526 77.2144 118.524 77.2141 118.521 77.2138C118.519 77.2134 118.517 77.2131 118.515 77.2128C118.513 77.2125 118.511 77.2122 118.508 77.2118C118.506 77.2115 118.504 77.2112 118.502 77.2109C118.5 77.2106 118.497 77.2102 118.495 77.2099C118.493 77.2096 118.491 77.2093 118.489 77.209C118.486 77.2086 118.484 77.2083 118.482 77.208C118.48 77.2077 118.477 77.2073 118.475 77.207C118.473 77.2067 118.471 77.2064 118.469 77.206C118.466 77.2057 118.464 77.2054 118.462 77.2051C118.46 77.2047 118.458 77.2044 118.455 77.2041C118.453 77.2038 118.451 77.2034 118.449 77.2031C118.446 77.2028 118.444 77.2025 118.442 77.2021C118.44 77.2018 118.437 77.2015 118.435 77.2012C118.433 77.2008 118.431 77.2005 118.428 77.2002C118.426 77.1999 118.424 77.1995 118.422 77.1992C118.419 77.1989 118.417 77.1985 118.415 77.1982C118.413 77.1979 118.41 77.1976 118.408 77.1972C118.406 77.1969 118.404 77.1966 118.401 77.1962C118.399 77.1959 118.397 77.1956 118.395 77.1952C118.392 77.1949 118.39 77.1946 118.388 77.1942C118.386 77.1939 118.383 77.1936 118.381 77.1932C118.379 77.1929 118.376 77.1926 118.374 77.1923C118.372 77.1919 118.37 77.1916 118.367 77.1913C118.365 77.1909 118.363 77.1906 118.36 77.1902C118.358 77.1899 118.356 77.1896 118.354 77.1892C118.351 77.1889 118.349 77.1886 118.347 77.1882C118.344 77.1879 118.342 77.1876 118.34 77.1872C118.337 77.1869 118.335 77.1866 118.333 77.1862C118.331 77.1859 118.328 77.1855 118.326 77.1852C118.324 77.1849 118.321 77.1845 118.319 77.1842C118.317 77.1839 118.314 77.1835 118.312 77.1832C118.31 77.1828 118.307 77.1825 118.305 77.1822C118.303 77.1818 118.3 77.1815 118.298 77.1811C118.296 77.1808 118.293 77.1805 118.291 77.1801C118.289 77.1798 118.286 77.1794 118.284 77.1791C118.282 77.1788 118.279 77.1784 118.277 77.1781C118.275 77.1777 118.272 77.1774 118.27 77.177C118.268 77.1767 118.265 77.1764 118.263 77.176C118.261 77.1757 118.258 77.1753 118.256 77.175C118.253 77.1746 118.251 77.1743 118.249 77.1739C118.246 77.1736 118.244 77.1733 118.242 77.1729C118.239 77.1726 118.237 77.1722 118.235 77.1719C118.232 77.1715 118.23 77.1712 118.227 77.1708C118.225 77.1705 118.223 77.1701 118.22 77.1698C118.218 77.1694 118.216 77.1691 118.213 77.1688C118.211 77.1684 118.208 77.1681 118.206 77.1677C118.204 77.1674 118.201 77.167 118.199 77.1667C118.196 77.1663 118.194 77.166 118.192 77.1656C118.189 77.1653 118.187 77.1649 118.184 77.1646C118.182 77.1642 118.18 77.1639 118.177 77.1635C118.175 77.1632 118.172 77.1628 118.17 77.1625C118.168 77.1621 118.165 77.1617 118.163 77.1614C118.16 77.161 118.158 77.1607 118.155 77.1603C118.153 77.16 118.151 77.1596 118.148 77.1593C118.146 77.1589 118.143 77.1586 118.141 77.1582C118.139 77.1579 118.136 77.1575 118.134 77.1571C118.131 77.1568 118.129 77.1564 118.126 77.1561C118.124 77.1557 118.121 77.1554 118.119 77.155C118.117 77.1547 118.114 77.1543 118.112 77.1539C118.109 77.1536 118.107 77.1532 118.104 77.1529C118.102 77.1525 118.099 77.1522 118.097 77.1518C118.095 77.1514 118.092 77.1511 118.09 77.1507C118.087 77.1504 118.085 77.15 118.082 77.1496C118.08 77.1493 118.077 77.1489 118.075 77.1486C118.072 77.1482 118.07 77.1478 118.067 77.1475C118.065 77.1471 118.062 77.1468 118.06 77.1464C118.057 77.146 118.055 77.1457 118.053 77.1453C118.05 77.1449 118.048 77.1446 118.045 77.1442C118.043 77.1439 118.04 77.1435 118.038 77.1431C118.035 77.1428 118.033 77.1424 118.03 77.142C118.028 77.1417 118.025 77.1413 118.023 77.1409C118.02 77.1406 118.018 77.1402 118.015 77.1398C118.013 77.1395 118.01 77.1391 118.008 77.1387C118.005 77.1384 118.003 77.138 118 77.1377C117.998 77.1373 117.995 77.1369 117.993 77.1365C117.99 77.1362 117.987 77.1358 117.985 77.1354C117.982 77.1351 117.98 77.1347 117.977 77.1343C117.975 77.134 117.972 77.1336 117.97 77.1332C117.967 77.1329 117.965 77.1325 117.962 77.1321C117.96 77.1318 117.957 77.1314 117.955 77.131C117.952 77.1306 117.949 77.1303 117.947 77.1299C117.944 77.1295 117.942 77.1291 117.939 77.1288C117.937 77.1284 117.934 77.128 117.932 77.1277C117.929 77.1273 117.927 77.1269 117.924 77.1265C117.921 77.1262 117.919 77.1258 117.916 77.1254C117.914 77.125 117.911 77.1247 117.909 77.1243C117.906 77.1239 117.903 77.1235 117.901 77.1232C117.898 77.1228 117.896 77.1224 117.893 77.122C117.891 77.1217 117.888 77.1213 117.885 77.1209C117.883 77.1205 117.88 77.1202 117.878 77.1198C117.875 77.1194 117.872 77.119 117.87 77.1186C117.867 77.1183 117.865 77.1179 117.862 77.1175C117.86 77.1171 117.857 77.1168 117.854 77.1164C117.852 77.116 117.849 77.1156 117.847 77.1152C117.844 77.1149 117.841 77.1145 117.839 77.1141C117.836 77.1137 117.833 77.1133 117.831 77.113C117.828 77.1126 117.826 77.1122 117.823 77.1118C117.82 77.1114 117.818 77.111 117.815 77.1107C117.813 77.1103 117.81 77.1099 117.807 77.1095C117.805 77.1091 117.802 77.1087 117.799 77.1084C117.797 77.108 117.794 77.1076 117.792 77.1072C117.789 77.1068 117.786 77.1064 117.784 77.1061C117.781 77.1057 117.778 77.1053 117.776 77.1049C117.773 77.1045 117.77 77.1041 117.768 77.1037C117.765 77.1033 117.762 77.103 117.76 77.1026C117.757 77.1022 117.754 77.1018 117.752 77.1014C117.749 77.101 117.747 77.1006 117.744 77.1002C117.741 77.0999 117.739 77.0995 117.736 77.0991C117.733 77.0987 117.731 77.0983 117.728 77.0979C117.725 77.0975 117.723 77.0971 117.72 77.0967C117.717 77.0963 117.714 77.096 117.712 77.0956C117.709 77.0952 117.706 77.0948 117.704 77.0944C117.701 77.094 117.698 77.0936 117.696 77.0932C117.693 77.0928 117.69 77.0924 117.688 77.092C117.685 77.0916 117.682 77.0912 117.68 77.0909C117.677 77.0905 117.674 77.0901 117.671 77.0897C117.669 77.0893 117.666 77.0889 117.663 77.0885C117.661 77.0881 117.658 77.0877 117.655 77.0873C117.652 77.0869 117.65 77.0865 117.647 77.0861C117.644 77.0857 117.642 77.0853 117.639 77.0849C117.636 77.0845 117.633 77.0841 117.631 77.0837C117.628 77.0833 117.625 77.0829 117.623 77.0825C117.62 77.0821 117.617 77.0817 117.614 77.0813C117.612 77.0809 117.609 77.0805 117.606 77.0801C117.603 77.0797 117.601 77.0793 117.598 77.0789C117.595 77.0785 117.592 77.0781 117.59 77.0777C117.587 77.0773 117.584 77.0769 117.581 77.0765C117.579 77.0761 117.576 77.0757 117.573 77.0753C117.57 77.0749 117.568 77.0745 117.565 77.0741C117.562 77.0737 117.559 77.0733 117.557 77.0729C117.554 77.0725 117.551 77.0721 117.548 77.0717C117.546 77.0713 117.543 77.0709 117.54 77.0705C117.537 77.0701 117.534 77.0697 117.532 77.0693C117.529 77.0689 117.526 77.0685 117.523 77.0681C117.521 77.0676 117.518 77.0672 117.515 77.0668C117.512 77.0664 117.509 77.066 117.507 77.0656C117.504 77.0652 117.501 77.0648 117.498 77.0644C117.495 77.064 117.493 77.0636 117.49 77.0632C117.487 77.0628 117.484 77.0624 117.481 77.0619C117.479 77.0615 117.476 77.0611 117.473 77.0607C117.47 77.0603 117.467 77.0599 117.465 77.0595C117.462 77.0591 117.459 77.0587 117.456 77.0582C117.453 77.0578 117.45 77.0574 117.448 77.057C117.445 77.0566 117.442 77.0562 117.439 77.0558C117.436 77.0554 117.434 77.0549 117.431 77.0545C117.428 77.0541 117.425 77.0537 117.422 77.0533C117.419 77.0529 117.417 77.0525 117.414 77.052C117.411 77.0516 117.408 77.0512 117.405 77.0508C117.402 77.0504 117.399 77.05 117.397 77.0496C117.394 77.0491 117.391 77.0487 117.388 77.0483C117.385 77.0479 117.382 77.0475 117.379 77.0471C117.377 77.0466 117.374 77.0462 117.371 77.0458C117.368 77.0454 117.365 77.045 117.362 77.0445C117.359 77.0441 117.357 77.0437 117.354 77.0433C117.351 77.0429 117.348 77.0425 117.345 77.042C117.342 77.0416 117.339 77.0412 117.336 77.0408C117.334 77.0404 117.331 77.0399 117.328 77.0395C117.325 77.0391 117.322 77.0387 117.319 77.0382C117.316 77.0378 117.313 77.0374 117.31 77.037C117.308 77.0366 117.305 77.0361 117.302 77.0357C117.299 77.0353 117.296 77.0349 117.293 77.0344C117.29 77.034 117.287 77.0336 117.284 77.0332C117.281 77.0327 117.279 77.0323 117.276 77.0319C117.273 77.0315 117.27 77.031 117.267 77.0306C117.264 77.0302 117.261 77.0298 117.258 77.0293C117.255 77.0289 117.252 77.0285 117.249 77.0281C117.246 77.0276 117.243 77.0272 117.241 77.0268C117.238 77.0263 117.235 77.0259 117.232 77.0255C117.229 77.0251 117.226 77.0246 117.223 77.0242C117.22 77.0238 117.217 77.0233 117.214 77.0229C117.211 77.0225 117.208 77.0221 117.205 77.0216C117.202 77.0212 117.199 77.0208 117.196 77.0203C117.193 77.0199 117.191 77.0195 117.188 77.019C117.185 77.0186 117.182 77.0182 117.179 77.0177C117.176 77.0173 117.173 77.0169 117.17 77.0164C117.167 77.016 117.164 77.0156 117.161 77.0151C117.158 77.0147 117.155 77.0143 117.152 77.0138C117.149 77.0134 117.146 77.013 117.143 77.0125C117.14 77.0121 117.137 77.0117 117.134 77.0112C117.131 77.0108 117.128 77.0104 117.125 77.0099C117.122 77.0095 117.119 77.0091 117.116 77.0086C117.113 77.0082 117.11 77.0077 117.107 77.0073C117.104 77.0069 117.101 77.0064 117.098 77.006C117.095 77.0056 117.092 77.0051 117.089 77.0047C117.086 77.0042 117.083 77.0038 117.08 77.0034C117.077 77.0029 117.074 77.0025 117.071 77.002C117.068 77.0016 117.065 77.0012 117.062 77.0007C117.059 77.0003 117.056 76.9998 117.053 76.9994C117.05 76.999 117.047 76.9985 117.044 76.9981C117.041 76.9976 117.038 76.9972 117.035 76.9967C117.032 76.9963 117.029 76.9959 117.026 76.9954C117.023 76.995 117.02 76.9945 117.017 76.9941C117.014 76.9936 117.01 76.9932 117.007 76.9927C117.004 76.9923 117.001 76.9919 116.998 76.9914C116.995 76.991 116.992 76.9905 116.989 76.9901L116.411 80.9481ZM117.655 79.6848L119.724 93.9336L123.683 93.3586L121.613 79.1099L117.655 79.6848ZM121.352 91.6773L115.676 92.6913L116.379 96.6289L122.055 95.6149L121.352 91.6773ZM117.827 93.7862L113.91 85.7243L110.312 87.4722L114.229 95.5341L117.827 93.7862ZM112.677 84.68C112.235 84.5495 111.485 84.4313 110.61 84.3132L110.075 88.2772C110.518 88.337 110.868 88.3894 111.13 88.4344C111.261 88.4569 111.363 88.4762 111.439 88.4921C111.519 88.5091 111.549 88.5178 111.545 88.5165L112.677 84.68ZM110.632 84.3162C109.646 84.1723 108.436 84.0843 107.023 84.0425L106.905 88.0408C108.237 88.0801 109.279 88.1611 110.054 88.2742L110.632 84.3162ZM107.068 84.0444C105.535 83.965 104.001 84.0633 102.469 84.3369L103.173 88.2745C104.41 88.0535 105.638 87.9757 106.861 88.039L107.068 84.0444ZM102.469 84.3369C98.616 85.0254 95.4807 86.4322 93.3558 88.7673L96.3143 91.4595C97.6389 90.0037 99.8277 88.8722 103.173 88.2745L102.469 84.3369ZM93.3458 88.7785C91.2867 91.0756 90.4087 93.7675 90.9353 96.7147L94.8729 96.0112C94.586 94.4054 94.9953 92.931 96.3243 91.4483L93.3458 88.7785ZM90.9353 96.7147C91.3401 98.9806 92.4274 100.875 94.1993 102.284L96.6889 99.1531C95.7227 98.3847 95.1166 97.3753 94.8729 96.0112L90.9353 96.7147ZM94.2181 102.299C95.8035 103.529 97.6401 104.429 99.6981 105.02L100.802 101.175C99.1792 100.71 97.8119 100.024 96.6701 99.1383L94.2181 102.299ZM99.7266 105.028C101.65 105.55 104.227 106.083 107.429 106.631L108.104 102.688C104.954 102.149 102.519 101.641 100.773 101.168L99.7266 105.028ZM107.429 106.631C111.277 107.291 114.392 108.001 116.799 108.753L117.991 104.935C115.355 104.111 112.051 103.365 108.105 102.688L107.429 106.631ZM116.829 108.762C119.074 109.425 121.066 110.562 122.823 112.192L125.544 109.26C123.343 107.217 120.809 105.766 117.961 104.926L116.829 108.762ZM122.836 112.204C124.454 113.679 125.581 115.792 126.103 118.716L130.041 118.013C129.398 114.415 127.932 111.436 125.531 109.248L122.836 112.204ZM126.103 118.716C126.915 123.261 126.152 126.989 123.974 130.081L127.244 132.384C130.131 128.286 131.01 123.436 130.041 118.013L126.103 118.716ZM123.974 130.081C121.739 133.253 118.461 135.678 114.011 137.303L115.382 141.061C120.468 139.204 124.465 136.329 127.244 132.384L123.974 130.081ZM112.728 139.534L115.028 152.408L118.965 151.704L116.665 138.83L112.728 139.534ZM116.645 150.087L109.585 151.349L110.288 155.286L117.348 154.025L116.645 150.087ZM111.905 152.966L109.704 140.645L105.767 141.349L107.968 153.669L111.905 152.966Z" fill="#0B0101" mask="url(#path-2-outside-1_189_141)"/>
</svg>
